<svg width="251" height="110" viewBox="0 0 251 110" fill="none" xmlns="http://www.w3.org/2000/svg">
<rect width="251" height="110" rx="12" fill="#0BDD52"/>
<path d="M74.4353 71.096C75.7793 70.616 76.8113 69.824 77.5313 68.72C78.2513 67.616 78.6113 66.248 78.6113 64.616C78.6113 62.984 77.9873 61.616 76.7393 60.512C75.5393 59.408 74.0753 58.472 72.3473 57.704C70.6193 56.888 68.8913 56 67.1633 55.04C65.4353 54.032 63.9473 52.568 62.6993 50.648C61.4993 48.728 60.8993 46.376 60.8993 43.592C60.8993 39.272 62.3153 35.864 65.1473 33.368C67.9793 30.824 72.0113 29.552 77.2433 29.552C78.4913 29.552 80.0273 29.672 81.8513 29.912L83.0753 35.744C81.1073 35.312 79.2353 35.096 77.4593 35.096C70.3073 35.096 66.7313 37.856 66.7313 43.376C66.7313 46.784 68.7953 49.304 72.9233 50.936C74.6513 51.656 76.3793 52.424 78.1073 53.24C79.8833 54.008 81.3713 55.232 82.5713 56.912C83.7713 58.592 84.3713 60.68 84.3713 63.176C84.3713 65.672 83.9153 67.808 83.0033 69.584C82.1393 71.36 81.0353 72.776 79.6913 73.832C78.3473 74.84 76.6433 75.656 74.5793 76.28C71.1713 77.336 67.0433 77.864 62.1953 77.864L60.8993 71.816C62.6273 72.104 64.4033 72.248 66.2273 72.248C68.0513 72.248 69.5393 72.176 70.6913 72.032C71.8433 71.888 73.0913 71.576 74.4353 71.096ZM108.778 41.72L107.338 47.264L98.8417 47.552C98.4577 53.072 98.2657 56.936 98.2657 59.144C98.2657 61.352 98.2897 62.912 98.3377 63.824C98.3857 64.736 98.5297 65.768 98.7697 66.92C99.0577 68.024 99.4177 68.936 99.8497 69.656C100.858 71.288 102.466 72.104 104.674 72.104C107.506 72.104 109.546 70.688 110.794 67.856L115.402 70.088C114.298 72.44 112.858 74.264 111.082 75.56C109.306 76.856 106.834 77.504 103.666 77.504C96.1777 77.504 92.4337 72.128 92.4337 61.376L92.8657 48.056L86.7457 48.2L87.2497 45.32L93.2257 42.8L95.2417 32.936H100.138L99.0577 42.584L108.778 41.72ZM128.586 77.576C125.466 77.576 122.898 76.664 120.882 74.84C118.914 72.968 117.93 70.472 117.93 67.352C117.93 64.232 119.058 61.688 121.314 59.72C123.57 57.752 126.234 56.768 129.306 56.768C132.378 56.768 134.994 57.752 137.154 59.72V56.984C137.154 54.008 136.554 51.704 135.354 50.072C134.202 48.392 132.762 47.552 131.034 47.552C129.306 47.552 127.794 47.96 126.498 48.776C125.25 49.544 123.93 50.744 122.538 52.376L119.298 48.704C122.562 44.48 126.666 42.368 131.61 42.368C139.386 42.368 143.274 46.76 143.274 55.544C143.274 64.328 143.298 71.504 143.346 77.072H138.234L138.018 73.904L137.802 73.76C137.13 74.72 135.882 75.608 134.058 76.424C132.282 77.192 130.458 77.576 128.586 77.576ZM137.226 66.92C137.178 65.192 136.458 63.848 135.066 62.888C133.674 61.928 131.994 61.448 130.026 61.448C128.058 61.448 126.522 62 125.418 63.104C124.314 64.208 123.762 65.528 123.762 67.064C123.762 68.6 124.314 69.944 125.418 71.096C126.57 72.2 128.13 72.752 130.098 72.752C132.066 72.752 133.722 72.272 135.066 71.312C136.458 70.304 137.178 68.84 137.226 66.92ZM150.118 43.232L155.302 42.656L155.95 49.496L156.382 49.424C158.926 44.624 162.262 42.224 166.39 42.224C168.31 42.224 170.278 42.824 172.294 44.024L169.774 49.568C168.046 48.464 166.366 47.912 164.734 47.912C163.15 47.912 161.734 48.632 160.486 50.072C159.238 51.464 158.254 53.384 157.534 55.832C156.862 58.232 156.526 61.064 156.526 64.328C156.526 67.592 156.646 71.816 156.886 77L150.19 77.288C150.286 69.512 150.334 63.08 150.334 57.992L150.118 43.232ZM194.981 41.72L193.541 47.264L185.045 47.552C184.661 53.072 184.469 56.936 184.469 59.144C184.469 61.352 184.493 62.912 184.541 63.824C184.589 64.736 184.733 65.768 184.973 66.92C185.261 68.024 185.621 68.936 186.053 69.656C187.061 71.288 188.669 72.104 190.877 72.104C193.709 72.104 195.749 70.688 196.997 67.856L201.605 70.088C200.501 72.44 199.061 74.264 197.285 75.56C195.509 76.856 193.037 77.504 189.869 77.504C182.381 77.504 178.637 72.128 178.637 61.376L179.069 48.056L172.949 48.2L173.453 45.32L179.429 42.8L181.445 32.936H186.341L185.261 42.584L194.981 41.72Z" fill="white"/>
</svg>
